#tb 0: 1/25
0,          0,          0,        1,   303172, abd9a3e31bc4b3c4103eb95e21dd74e6
0,          1,          1,        1,   303140, 29e62ca01ba6520da8c35442ddfa7bec
0,          2,          2,        1,   303000, 03bc2de7e91ef1e929c4032a1469465f
0,          3,          3,        1,   303044, d7316b5074897ceb5861de482006ec07
0,          4,          4,        1,   303084, 8a29268305ef904301658ec2664241c7
0,          5,          5,        1,   303056, 975dd2ac1e4b6dcd2a909889bac98604
0,          6,          6,        1,   303056, b3ccb6e7a35e44616dc246b747edcb23
0,          7,          7,        1,   303120, 593e11ab37e42cf285f9a13bf671b60e
0,          8,          8,        1,   303152, 542aeb683f988532116f29fb3cc0a41c
0,          9,          9,        1,   303156, f42a3e67219288391cdd131c12c2da87
0,         10,         10,        1,   303036, a37840b759223d8d7e18902fb6073247
0,         11,         11,        1,   303052, bbb27328a3d8949923daaa0b5ed28b3d
0,         12,         12,        1,   303168, 522b1e74feb75bd7c4a71e5d85a3fda2
0,         13,         13,        1,   303044, 961add62cf8853b41d281164344716be
0,         14,         14,        1,   302928, 01b5005db00eb6dde2d8231e797ab40d
0,         15,         15,        1,   302956, 6d448f007b545f370d2dffff0fb57e00
0,         16,         16,        1,   303048, 942ec6895f66b5f08ee6cdc5604641ad
0,         17,         17,        1,   303100, d83c9630bedd853cac07e26b6f99f77d
0,         18,         18,        1,   303188, 6b9a7a78b71e64ed9a6c33a844387db4
0,         19,         19,        1,   303244, bfa627071fd9be90f752d44a933aa89b
0,         20,         20,        1,   303196, b1ec566949ac10d73bc16b3025cbeae4
0,         21,         21,        1,   303240, d63e8b323bcff8a00cf7cbe99dc35a7f
0,         22,         22,        1,   303256, 75fd6c994639c9e135d5030f31d8b21d
0,         23,         23,        1,   303172, ac0e8390b59c639daba597c1b61fd6cb
0,         24,         24,        1,   303224, 507bbfb7401ad63ddf318ef152615873
0,         25,         25,        1,   303288, 5f223867377e295e954407632ccddcbb
0,         26,         26,        1,   303248, 14c1be3751f3e05894e286e870f9d8ce
0,         27,         27,        1,   303316, 9d924c4c4603ac5d9c2659f13cbcf928
0,         28,         28,        1,   303256, c05f5d99182899aefb57e914e336e0ba
0,         29,         29,        1,   303332, 41a65ae85522875f582de0487b0afab0
0,         30,         30,        1,   303344, 749dc30e61b9d5a179c3513b5e6ca052
0,         31,         31,        1,   303284, 958be38d742fb0c5fce50a50bcbe91e2
0,         32,         32,        1,   303232, df178e2c1819c832d9a468e22f0d6bed
0,         33,         33,        1,   303164, db6061112448b9b29c84e9c045561dde
0,         34,         34,        1,   303088, c3e0f93fd01155c0d4671a24ba82e4c3
0,         35,         35,        1,   303232, 5b2254a77fbbd0066fcacf1593c92f8f
0,         36,         36,        1,   303312, ed9c65e2d573a7491b964d8cd160df9c
0,         37,         37,        1,   303288, 9cf8fa422d4fc4e458cab411614c4e47
0,         38,         38,        1,   303348, 9e00fe9b2003d28d97c3c766d6eaf6b6
0,         39,         39,        1,   303308, 4abeab3a986bcaa2cdc6a3898fb7aea0
0,         40,         40,        1,   303380, 4fefa9101b72a398a411348a5ac0f398
0,         41,         41,        1,   303316, cbc28418d47be7ac8f7d3922cfd382a9
0,         42,         42,        1,   303352, e365776166badae59207351c5302c4ee
0,         43,         43,        1,   303400, 7d207922a9ff4a64c9fc08d32d53541e
0,         44,         44,        1,   303376, fa84592162246745c77a528301f30532
0,         45,         45,        1,   303416, 29013e5e5ef8a0f5de63f8946386eeed
0,         46,         46,        1,   303408, e56901bf9b5559ba91105fe6f388ea41
0,         47,         47,        1,   303456, 12958be8a6f6beadd9b94db6d4295b6c
0,         48,         48,        1,   303516, bf8175a090ee88158f26a3eaff0ae79c
0,         49,         49,        1,   303488, 964be87620c228652924bfd68faa25d9
